Patient4_TMGait_0pt6_01_right_20_EMG.mot
version=1
nRows=30
nColumns=33
inDegrees=no
endheader
time	1LAddLong	2LGlutMax	3LGlutMed	4LIliopsoas	5LSemiMemb	6LBicFemLong	7LRecFem	8LVastMed	9LVastLat	10LGasMed	11LTibAnt	12lTibPost	13LPeroneusLong	14LSol	15LExtDigLong	16LFlexDigLong	17RAddLong	18RGlutMax	19RGlutMed	20RIliopsoas	21RSemiMemb	22RBicFemLong	23RRecFem	24RVastMed	25RVastLat	26RGasMed	27RTibAnt	28RTibPost	29RPeroneusLong	30RSol	31RExtDigLong	32RFlexDigLong
24.14	-0.009003	-0.42191	-0.082703	0.009308	0.016022	-0.049591	0.16541	0.000153	0.047913	0.036316	-0.14999	0.003357	-0.007782	0.06958	-0.58914	0.002136	-0.070953	-0.25192	0.5661	-0.002899	-0.39215	-0.19043	0.29098	0.12039	0.18265	-0.029297	-0.19134	-0.062103	0.77774	0.13748	-0.001526	-0.01358
24.141	-0.013123	-0.4361	-0.10468	-0.00061	0.018921	-0.06546	0.21454	0.000153	0.05127	0.076294	-0.17929	0.005035	-0.089264	0.008698	-0.34912	0.004578	-0.022888	-0.33173	-0.49454	-0.012054	-0.23804	-0.40192	0.30838	0.052185	0.1297	0.007019	-0.027466	-0.090332	0.37628	0.04776	0.000305	-0.007782
24.142	-0.009155	-0.35797	-0.096283	-0.000916	0.016327	-0.045776	0.15106	-0.002441	0.033722	0.041199	-0.16403	-0.007324	-0.095367	0.027161	-0.37888	0.006561	-0.000153	-0.33752	-0.39978	-0.003052	-0.055084	-0.4425	0.33386	0.062256	0.063934	0.032806	0.069733	-0.069885	0.13901	-0.23544	-0.003204	-0.019226
24.143	-0.013428	-0.33524	-0.074463	0.011749	0.014954	-0.024719	-0.034027	0.005493	0.02594	0.018311	-0.09964	0.004883	-0.077362	0.062103	-0.33371	0.020294	0.002136	-0.50003	-0.24582	0.054169	0.36652	-0.36545	0.27771	-0.011902	0.031891	0.053864	0.087738	0.17807	-0.047302	-0.42862	-0.001526	-0.029907
24.144	-0.009766	-0.33768	-0.075531	-0.00061	0.005646	0.016785	-0.18997	0.00885	0.040588	0.024109	0.032654	-0.003357	-0.15076	0.062256	-0.15671	0.02655	0.00824	-0.74097	-1.033	0.072937	0.25299	-0.41779	0.1561	-0.033875	0.037384	0.001373	0.10819	0.087585	-0.36194	-0.53085	-0.003967	-0.032806
24.145	-0.001221	-0.30807	-0.066223	-0.001526	0.007477	0.023499	-0.025024	0.005798	0.034485	0.016022	0.20294	-0.004425	-0.16174	0.049286	0.72372	0.011749	-0.018311	-0.82001	-0.90622	0.032806	0.085602	-0.15228	0.074463	0.009766	0.024109	-0.02182	0.090179	-0.044098	-0.1471	-0.6366	-0.003204	-0.033875
24.146	0.002289	-0.24887	-0.084076	-0.02121	0.010529	0.025635	0.1033	0.00473	0.017242	0.012512	0.19486	-0.004425	-0.12466	0.13168	0.096283	0.007629	-0.055237	-0.81894	-1.1826	0.10391	-0.081177	0.09613	0.094452	0.068817	0.017548	-0.034027	0.006866	-0.057068	0.73242	-0.4866	-0.002136	-0.033569
24.147	0.010223	-0.25681	-0.11734	-0.029907	0.001373	0.044098	0.11154	-0.003815	-0.005341	-0.016022	-0.27451	-0.00473	-0.009766	0.23926	1.2527	0.007782	-0.051422	-1.1177	-1.6267	0.2803	-0.19012	-0.093231	0.10498	0.10178	0.032043	-0.06424	0.006714	-0.042419	-0.27802	-0.16785	-0.001678	-0.02594
24.148	0.007324	-0.26352	-0.12222	-0.018921	0.005035	0.060883	0.11948	-0.005951	-0.00946	-0.011139	-0.51834	-0.002289	0.054779	0.24918	0.009003	0.001373	-0.011139	-1.3106	-1.2653	0.20264	-0.12131	-0.401	0.17288	0.13687	0.030518	-0.097809	0.088806	-0.070343	-0.50903	0.24277	-0.000916	-0.019836
24.149	0.009308	-0.33218	-0.10803	0.005493	0.008392	0.076141	0.1062	-0.007324	-0.0177	-0.005035	-0.29526	-0.005341	0.032501	0.19898	0.24429	-0.001984	-0.013123	-1.4461	-1.2845	0.15274	-0.029907	-0.18646	0.1683	0.065002	0.053864	0.009155	0.047913	-0.21103	0.66742	0.59967	-0.006714	-0.023651
24.15	0.006866	-0.40131	-0.09613	0.003967	-0.001526	0.055695	0.051727	-0.007324	-0.019379	-0.025024	-0.029449	-0.003662	0.042725	0.20798	-0.42038	-0.004272	-0.007324	-1.5953	-1.2061	0.06546	0.14847	-0.082245	0.13412	0.078888	0.033112	-0.001221	-0.21896	0.041199	2.643	0.26596	-0.006866	-0.021973
24.151	0.011444	-0.45456	-0.09613	0.007629	0.007629	0.065155	0.10788	-0.012054	-0.023651	-0.000763	0.17532	-0.00351	-0.034637	0.18066	-0.51529	0.009155	0.021362	-1.6684	-0.88913	0.02533	0.16495	-0.22415	0.13596	0.064697	0.025635	0.01358	0.054932	0.18616	-0.31097	-0.10346	-0.011444	-0.024414
24.152	0.004578	-0.45029	-0.094757	0.013428	0.01297	0.029144	0.21179	0.001373	-0.011139	0.040131	0.16647	-0.019379	-0.10864	0.13519	-0.41153	-0.008698	0.069885	-1.7522	-0.79422	0.051117	0.032043	0.11444	0.18555	-0.068665	-0.0177	-0.050354	0.16357	0.11932	-0.5632	-0.061646	-0.003052	-0.015869
24.153	-0.005341	-0.4776	-0.090332	0.006256	0.00473	0.015564	0.25452	-0.001373	-0.010071	0.050049	-0.10468	-0.022888	-0.1088	0.095673	-0.042572	-0.023499	0.064545	-1.8271	-0.82031	0.027008	-0.14618	0.19928	0.17746	-0.057983	-0.030975	-0.14008	-0.097961	0.010681	0.68481	-0.11826	-0.002747	-0.015259
24.154	-0.012817	-0.46967	-0.077515	0.003967	0.014648	0.012817	0.27329	-0.003662	0.004425	0.06897	-0.29816	-0.018921	-0.046387	-0.048981	-0.040588	-0.007935	0.031586	-1.8832	-0.56854	0.007324	-0.3006	0.19562	0.168	-0.08728	-0.040436	-0.16693	-0.16571	-0.02655	-0.92834	-0.40482	-0.008087	-0.012207
24.155	-0.018158	-0.3746	-0.059814	0.033722	0.011139	0.012665	0.27527	-0.006104	-0.007782	0.073547	-0.29053	-0.023499	-0.052643	-0.16083	-0.12543	-0.00824	-0.071411	-1.8588	-0.57526	-0.063171	-0.33325	-0.001526	0.18875	-0.045166	0	0.024719	-0.042267	0.059662	-1.8942	-0.53345	-0.005035	-0.010681
24.156	-0.013885	-0.32852	-0.056152	0.034637	0.006409	-0.007019	0.27786	-0.007782	-0.017548	0.058746	0.070496	-0.013123	-0.063477	-0.15015	0.63904	0.00412	-0.16281	-1.8964	-0.43045	-0.12756	0.08194	-0.23239	0.12161	0.000305	0.00351	0.10498	-0.036316	0.016785	-0.11414	0.080566	-0.002747	-0.007935
24.157	-0.015717	-0.34988	-0.071259	0.02121	0.009613	0.013733	0.30258	-0.003662	-0.015717	0.001221	0.40085	-0.016327	0.029602	-0.06485	0.14358	0.010071	-0.091705	-1.7427	-0.27313	-0.12466	0.2446	-0.51071	0.11749	-0.010529	-0.01358	0.17288	-0.054626	-0.02533	1.4021	0.18494	-0.002289	-0.016479
24.158	-0.014648	-0.30807	-0.065765	-0.007477	0.012817	0.026245	0.3508	-0.001373	-0.030365	0.02594	0.36697	-0.016479	-0.01297	-0.048676	0.072021	0.001984	-0.08194	-1.6139	-0.31372	-0.055237	0.25406	-0.69473	0.15915	0.0737	0.010681	0.22675	-0.057831	0.005341	0.84747	-0.03067	-0.005798	-0.015411
24.159	0.03479	-0.20599	-0.048065	-0.001526	0.005035	0.020599	0.31464	-0.007935	-0.021057	0.064545	0.17853	-0.011902	-0.051727	0.029755	-0.039063	-0.003662	-0.065308	-1.5277	-0.58334	-0.005798	0.091248	-0.74112	0.049286	0.059357	-0.02243	0.11292	0.026245	-0.055695	0.04425	0.044098	-0.002441	-0.02243
24.16	-0.037231	-0.15427	-0.027924	-0.01709	0.016174	0.008545	0.35523	0.000305	-0.019989	0.08194	0.017853	-0.015411	-0.10208	0.086517	-0.18341	0.006104	-0.029297	-1.4537	-0.18265	-0.058746	-0.018158	-0.7106	-0.028992	-0.053101	0.39902	0.025177	0.20752	-0.064697	-0.37964	0.095062	-0.001373	-0.019989
24.161	-0.037994	-0.080261	-0.012054	-0.028687	0.015717	0.008392	0.39261	-0.00351	-0.036163	0.070038	0.056305	-0.014496	-0.103	0.11276	0.18265	-0.018921	0.003204	-1.3705	0.19089	-0.012665	-0.12604	-0.50354	-0.037079	-0.052643	0.57266	0.028687	0.30411	0.053558	0.31982	-0.15991	-0.003967	-0.018616
24.162	-0.009918	-0.075378	0.001678	-0.017853	0.016785	-0.011444	0.46555	0.001221	-0.065613	0.0383	-0.23712	-0.014038	-0.054779	0.19058	-0.12421	-0.02533	-0.000458	-1.1575	0.36941	0.12833	-0.17838	-0.14008	-0.09552	-0.026398	0.3035	0.012512	0.12497	0.008392	0.56961	-0.27557	-0.005951	-0.019531
24.163	0.001221	-0.11063	-0.018768	-0.012512	0.020752	-0.02594	0.61783	-0.000305	-0.088043	0.047302	-0.13794	-0.011139	-0.092926	0.15396	-0.47791	-0.020294	-0.015106	-0.97549	0.38422	0.18677	-0.079346	0.19745	-0.28824	0.009918	0.048523	0.029602	-0.014496	0.003967	-1.4523	-0.28305	-0.003662	-0.012207
24.164	-0.013733	-0.16769	-0.035248	-0.018158	0.010681	-0.011597	0.62714	0.003204	-0.10101	0.053406	-0.042267	-0.005951	-0.058899	0.064545	-0.24429	-0.014648	0.00824	-0.88013	-0.050354	0.17532	-0.007782	0.3624	-0.29785	-0.036926	-0.27832	0.02533	0.084686	0.00946	-2.7602	-0.059204	-0.002289	-0.013733
24.165	-0.006866	-0.21072	-0.088348	-0.012054	0.013123	-0.052795	0.58182	0.005798	-0.12421	0.04425	-0.014496	0.00351	0.028381	-0.075378	0.094452	-0.003662	0.021667	-0.73151	0.12054	0.17639	0.10773	0.059052	-0.12283	-0.10696	-0.47974	0.021515	-0.042419	0.024109	-1.6635	-0.06897	-0.001678	-0.016174
24.166	-0.020294	-0.22079	-0.084839	0.006866	0.014801	-0.018005	0.50491	0.003815	-0.11643	0.057373	0.020752	-0.005951	0.025482	-0.040741	-0.023499	-0.005035	0.003662	-0.33829	-0.14603	0.19531	0.03006	-0.1828	0.063782	0.012817	-0.50171	0.016479	-0.1831	0.017395	1.5659	-0.33905	-0.002747	-0.000763
24.167	-0.010529	-0.26535	-0.030212	0.008392	0.017242	-0.005341	0.46509	0.006256	-0.11673	0.065308	0.021362	-0.001678	-0.003967	-0.05188	-0.040588	-0.006104	-0.003357	-0.026855	0.89035	0.072327	0.057526	-0.31052	0.23605	0.10361	-0.29175	-0.030365	-0.12497	-0.029602	-1.5146	-0.15625	-0.002899	-0.010071
24.168	-0.00412	-0.36331	-0.035706	-0.010986	0.007935	-0.005341	0.40543	0.00351	-0.091248	0.06546	-0.085297	-0.006561	-0.012054	-0.009003	-0.33539	-0.011444	0.018158	-0.000458	0.70801	0.039215	0.054474	-0.37384	0.28244	0.072174	-0.068359	-0.071106	-0.10468	-0.027771	-0.79224	-0.053253	-0.002136	-0.005341
24.169	-0.002899	-0.39764	-0.039063	-0.019836	0.011292	-0.019379	0.37003	-0.003052	-0.067139	0.057068	0.016785	-0.006409	-0.023956	0.005646	-0.010681	0.001526	0.007019	0.13153	0.18967	0.004578	-0.013123	-0.33783	0.18021	0.044403	-0.050507	-0.082855	-0.25452	-0.020599	1.5964	-0.05661	-0.003967	-0.000305
